<?xml version="1.0" encoding="UTF-8"?>
<svg id="Layer_2" data-name="Layer 2" xmlns="http://www.w3.org/2000/svg" viewBox="0 0 268.78 54.61">
  <defs>
    <style>
      .cls-1 {
        fill: #ffc300;
      }

      .cls-1, .cls-2 {
        fill-rule: evenodd;
        stroke-width: 0px;
      }

      .cls-2 {
        fill: #fff;
      }
    </style>
  </defs>
  <g id="Layer_2-2" data-name="Layer 2">
    <path class="cls-2" d="M265.09,26.46c-.29-1.03-.85-1.89-1.68-2.59s-1.79-1.22-2.89-1.57-2.28-.51-3.53-.5c-1.25.02-2.43.27-3.55.74-1.12.48-2.1,1.18-2.95,2.12-.84.94-1.43,2.12-1.76,3.55-.26,1.18-.29,2.37-.11,3.58s.61,2.3,1.27,3.28c.66.97,1.55,1.77,2.67,2.4,1.12.62,2.47.94,4.05.94,2.98,0,5.29-1.08,6.94-3.25l5.23,3.8c-2.79,3.93-6.81,5.9-12.07,5.9-2.75,0-5.13-.52-7.14-1.57-2-1.05-3.63-2.4-4.88-4.08-1.25-1.67-2.09-3.54-2.53-5.62-.44-2.08-.49-4.13-.14-6.17s1.11-3.97,2.29-5.79,2.77-3.3,4.79-4.44c1.51-.84,3.11-1.42,4.82-1.74,1.71-.31,3.42-.34,5.15-.08,2.28.33,4.05,1.01,5.32,2.04,1.27,1.03,2.1,2.14,2.51,3.33.4,1.19.43,2.33.08,3.42-.35,1.08-.98,1.85-1.9,2.29h.01ZM112.45,3.01c1.03-.73,1.94-1.23,2.73-1.49s1.51-.29,2.15-.11,1.24.58,1.79,1.18c.55.61,1.14,1.42,1.76,2.45l3.64,6.17c-.88.51-1.79.75-2.73.72-.94-.04-1.72-.39-2.34-1.05l-7-7.88h0ZM99.33,5.82v38.57h-6.94V11.45c0-1.76.62-3.15,1.87-4.16,1.25-1.01,2.94-1.5,5.07-1.46h0ZM126.11,41.25v3.14h7.16V15.85h-7.17v11.74c0,1.29-.12,2.58-.36,3.88-.24,1.3-.64,2.48-1.21,3.53s-1.33,1.9-2.29,2.56-2.17.99-3.64.99c-1.73,0-3.17-.41-4.33-1.24-1.16-.84-2.02-1.87-2.59-3.13-.57-1.25-.85-2.61-.83-4.06.02-1.46.32-2.81.91-4.06.59-1.26,1.45-2.3,2.59-3.13,1.14-.83,2.55-1.24,4.24-1.24,1.07,0,2.17.16,3.31.48s2.02.96,2.65,1.89c.33-.59.49-1.37.47-2.34s-.28-1.94-.77-2.89c-.5-.96-1.28-1.79-2.34-2.51-1.06-.72-2.48-1.11-4.24-1.18-1.8-.07-3.54.25-5.21.96-1.67.72-3.16,1.74-4.46,3.06-1.3,1.32-2.34,2.92-3.11,4.79-.77,1.87-1.16,3.91-1.16,6.12s.36,4.38,1.07,6.2c.72,1.82,1.67,3.38,2.87,4.68,1.19,1.3,2.57,2.3,4.13,3s3.17,1.07,4.82,1.13,3.3-.23,4.93-.85,3.15-1.62,4.54-2.98h.02ZM229.63,50.5c0,1.12-.38,2.09-1.15,2.9-.76.81-1.7,1.21-2.82,1.21s-2.11-.38-2.91-1.15c-.8-.76-1.21-1.72-1.21-2.87s.4-2.1,1.18-2.92c.79-.83,1.74-1.24,2.84-1.24s2.08.39,2.88,1.19c.79.8,1.19,1.76,1.19,2.87h0ZM230.81,17.16c-2.2-1.3-4.7-1.94-7.49-1.94-2.31,0-4.44.49-6.39,1.46s-3.65,2.34-5.12,4.11c.81-.48,1.67-.8,2.59-.96.92-.17,1.84-.18,2.76-.06.92.13,1.77.39,2.56.77.79.39,1.46.91,2.01,1.57,1.29-.26,2.5-.25,3.64.03s2.14.77,3,1.49,1.55,1.63,2.07,2.73.77,2.37.77,3.8c0,1.84-.39,3.37-1.16,4.6s-1.74,2.16-2.89,2.78c-1.16.62-2.41.94-3.75.94s-2.59-.3-3.75-.91-2.12-1.51-2.89-2.73c-.77-1.21-1.16-2.74-1.16-4.57,0-1.07.25-1.96.74-2.67.5-.72,1.1-1.25,1.82-1.6s1.46-.51,2.23-.5c.77.02,1.43.23,1.98.63-.11-1.03-.47-1.9-1.07-2.62-.61-.72-1.35-1.27-2.23-1.65-.88-.39-1.84-.6-2.86-.63-1.03-.04-2.02.11-2.97.44s-1.81.85-2.56,1.54c-.75.7-1.29,1.58-1.63,2.65-.77,2.64-.83,5.29-.16,7.93.66,2.64,1.98,4.98,3.97,7,1.76,1.76,3.76,2.98,5.98,3.66s4.43.86,6.64.55c2.2-.31,4.28-1.09,6.23-2.34s3.53-2.92,4.74-5.01c1.43-2.53,2.1-5.12,2.01-7.77-.09-2.65-.78-5.05-2.07-7.22-.74-1.25-1.65-2.38-2.72-3.37.87-.68,1.56-1.63,2.06-2.83.57-1.39.7-2.77.41-4.15-.4-1.38-1.21-2.34-2.45-2.89-.89-.35-1.82-.38-2.81-.06-2.28.73-3.53,3.96-1.58,5.73,1.85,1.68,4.17.14,4.43-.05l-.11.44c-.29.74-.92,1.24-1.9,1.51-.3.1-.6.16-.9.18h-.02ZM165.92,15.02h-6.39c0-.73.06-1.45.19-2.15.13-.7.38-1.33.74-1.9.37-.57.86-1.03,1.49-1.38.62-.35,1.43-.52,2.42-.52h2.14V3.36c2.17.07,3.87.66,5.1,1.76,1.23,1.1,1.85,2.39,1.85,3.86v35.4h-6.94v-3.03c-1.36,1.32-2.84,2.29-4.44,2.89-1.6.61-3.2.88-4.82.83-1.62-.05-3.18-.42-4.68-1.1-1.51-.68-2.84-1.65-4-2.92-1.16-1.27-2.08-2.78-2.78-4.55-.7-1.76-1.05-3.77-1.05-6.01s.38-4.15,1.13-5.95,1.76-3.35,3.03-4.66c1.27-1.3,2.71-2.3,4.32-3,1.62-.7,3.31-1.01,5.07-.94,1.84.07,3.28.46,4.33,1.16s1.8,1.51,2.26,2.42c.46.92.68,1.85.66,2.78-.02.94-.19,1.7-.52,2.29-.62-.88-1.5-1.48-2.62-1.79-1.12-.31-2.18-.47-3.17-.47-1.65,0-3.04.4-4.16,1.21-1.12.81-1.96,1.82-2.53,3.03-.57,1.21-.85,2.53-.85,3.94s.28,2.73.83,3.94,1.38,2.22,2.48,3.03c1.1.81,2.5,1.21,4.19,1.21,1.43,0,2.62-.32,3.55-.96.94-.64,1.68-1.48,2.23-2.51s.95-2.18,1.18-3.44c.24-1.27.36-2.53.36-3.77v-12.99h-.6ZM203.88,15.83c-2.11-.07-3.82.38-5.14,1.35-1.32.97-1.96,2.45-1.93,4.43v10.3c0,.73-.07,1.45-.19,2.15-.13.7-.35,1.35-.66,1.96s-.78,1.11-1.4,1.52c-.44.29-.92.51-1.43.66s-1.05.22-1.6.22-1.09-.07-1.63-.22c-.53-.15-1-.37-1.4-.66-.62-.44-1.09-.97-1.41-1.6-.31-.62-.53-1.29-.66-2.01-.13-.72-.2-1.45-.22-2.2s-.03-1.46-.03-2.12v-13.66h-7.22v13c0,1.73.08,3.32.22,4.77.15,1.45.35,2.6.61,3.44.88,2.75,2.33,4.76,4.35,6,2.02,1.25,4.44,1.87,7.27,1.87,2.61,0,4.89-.53,6.83-1.6,1.95-1.07,3.45-2.83,4.52-5.29.4-.96.71-2.27.91-3.94s.28-3.76.25-6.25v-8.78c1.22-.69,2.15-1.8,2.78-3.31.57-1.39.7-2.77.41-4.15-.4-1.38-1.21-2.34-2.45-2.89-.89-.35-1.82-.38-2.81-.06-2.28.73-3.53,3.96-1.58,5.73,1.85,1.68,4.17.14,4.43-.05l-.11.44c-.15.38-.39.69-.72.95h0Z"/>
    <path class="cls-1" d="M70.85,33.4c-1.98.51-3.79.7-5.43.55-1.63-.15-2.98-.54-4.02-1.18-1.05-.64-1.74-1.51-2.09-2.59s-.25-2.31.3-3.66c1.14.95,2.46,1.48,3.97,1.57,1.51.09,2.96.06,4.35-.08,1.18-.11,2.07-.37,2.67-.77.61-.4.98-.87,1.13-1.4.15-.53.09-1.09-.17-1.68-.26-.59-.67-1.12-1.24-1.6s-1.27-.86-2.09-1.16c-.83-.29-1.74-.42-2.73-.39-1.06.07-2.08.33-3.03.77-.95.44-1.8,1.05-2.53,1.82-.74.77-1.32,1.67-1.76,2.7s-.68,2.17-.72,3.42c-.04,1.03.08,2.04.36,3.03.28.99.69,1.9,1.24,2.73.55.83,1.21,1.52,1.98,2.09s1.65.93,2.64,1.07c1.4.26,2.83.16,4.3-.28s2.77-1.25,3.91-2.42l5.79,2.81c-1.51,2.24-3.29,3.85-5.34,4.82-2.06.97-4.41,1.46-7.05,1.46-2.46,0-4.62-.43-6.47-1.29-1.85-.86-3.4-2.01-4.63-3.44s-2.15-3.06-2.75-4.88c-.61-1.82-.89-3.67-.85-5.56s.4-3.75,1.1-5.56c.7-1.82,1.71-3.43,3.03-4.82,1.47-1.58,3.19-2.7,5.15-3.36,1.96-.66,3.98-.99,6.03-.99,2.28,0,4.24.39,5.9,1.16,1.65.77,2.99,1.75,4.02,2.95,1.03,1.19,1.71,2.52,2.04,3.97.33,1.45.3,2.86-.08,4.22-.39,1.36-1.15,2.58-2.29,3.66s-2.68,1.86-4.63,2.34h0v-.03ZM56.92,14.52c8.31,0,2.89-3.06,8.38-3.39,5.05-.3,1.17,3.38,8.95,3.41-1.14-4.07-4.5-7.3-8.92-7.41-4.39-.11-7.91,2.84-8.41,7.39h0ZM64.68,2.35c-.9-.89-1.72-1.52-2.46-1.89-.74-.38-1.44-.52-2.11-.44-.66.08-1.31.38-1.95.89-.64.51-1.35,1.23-2.12,2.15l-4.55,5.53c.79.64,1.65,1.02,2.58,1.13.93.11,1.76-.11,2.48-.67l8.14-6.69h-.01ZM3.52,11.48c0-1.03.19-1.9.58-2.62.39-.72.9-1.3,1.54-1.74.64-.44,1.39-.76,2.23-.96s1.71-.3,2.59-.3v10.25h6.39c0,.74-.06,1.45-.19,2.15-.13.7-.38,1.33-.74,1.9-.37.57-.86,1.03-1.49,1.38-.62.35-1.43.52-2.42.52h-1.54v15.59c0,.59.22,1,.66,1.24s.96.35,1.54.33c.59-.02,1.18-.16,1.76-.41.59-.26,1.01-.61,1.27-1.05.48,1.21.5,2.29.08,3.22-.42.94-1.08,1.69-1.98,2.26s-1.95.94-3.14,1.1c-1.19.17-2.31.07-3.36-.27-1.05-.35-1.94-.97-2.67-1.87-.73-.9-1.1-2.12-1.1-3.66v-16.47H0v-5.95h3.53v-4.63h-.01ZM28.2,5.86c-2.13-.04-3.82.45-5.07,1.46s-1.87,2.4-1.87,4.16v32.95h6.95v-20.83c.18.51.5.99.96,1.43s.89.72,1.29.83c0-1.07.34-1.93,1.02-2.59s1.64-.99,2.89-.99c.96,0,1.82.29,2.59.88.77.59,1.3,1.43,1.6,2.53.11.44.2,1.12.28,2.04.07.92.13,1.97.17,3.17.04,1.19.06,2.46.06,3.8v3.86c0,1.23,0,2.37-.03,3.42-.02,1.05-.03,1.86-.03,2.45h6.89v-18.35c0-3.16-.81-5.58-2.43-7.27-1.1-1.14-2.31-1.93-3.64-2.37-1.32-.44-2.66-.62-4.02-.55-.66.04-1.37.15-2.12.33s-1.49.43-2.2.74c-.72.31-1.37.71-1.96,1.18-.59.48-1.03,1.03-1.32,1.65V5.86h0Z"/>
  </g>
</svg>